<svg width="787" height="554" viewBox="0 0 787 554" fill="none" xmlns="http://www.w3.org/2000/svg">
<g clip-path="url(#clip0_1431_239)">
<path d="M769.619 86.629C765.105 69.9469 756.299 54.7384 744.079 42.5179C731.86 30.2974 716.651 21.4913 699.97 16.9764C638.897 0.320312 393.101 0.320312 393.101 0.320312C393.101 0.320312 147.293 0.824483 86.2201 17.4806C69.5379 21.9957 54.3295 30.8023 42.1095 43.0234C29.8895 55.2445 21.0843 70.4536 16.5706 87.1362C-1.90235 195.65 -9.06836 361 17.0779 465.173C21.592 481.855 30.3974 497.064 42.6174 509.284C54.8374 521.505 70.0455 530.311 86.7274 534.826C147.8 551.482 393.602 551.482 393.602 551.482C393.602 551.482 639.401 551.482 700.471 534.826C717.153 530.311 732.362 521.505 744.582 509.285C756.803 497.064 765.609 481.855 770.123 465.173C789.608 356.505 795.612 191.257 769.619 86.629Z" fill="#FF0000"/>
<path d="M314.869 394.015L518.776 275.91L314.869 157.805V394.015Z" fill="white"/>
</g>
<defs>
<clipPath id="clip0_1431_239">
<rect width="787" height="553.359" fill="white" transform="translate(0 0.320312)"/>
</clipPath>
</defs>
</svg>
