<svg width="500" height="500" viewBox="0 0 500 500" fill="none" xmlns="http://www.w3.org/2000/svg">
<path d="M376.562 32.3672L463.5 122.992V467.617H138.734V468.742H464.609V124.133L376.562 32.3672Z" fill="#909090"/>
<path d="M375.482 31.25H137.623V467.625H463.498V123.016L375.482 31.25Z" fill="#F4F4F4"/>
<path d="M135.234 54.6875H35.3906V161.359H349.453V54.6875H135.234Z" fill="#7A7B7C"/>
<path d="M351.125 159.547H37.4219V52.7969H351.125V159.547Z" fill="#DD2025"/>
<path d="M141.438 70.8456H121.016V145.846H137.078V120.549L140.625 120.752C144.073 120.704 147.489 120.087 150.734 118.924C153.588 117.955 156.21 116.407 158.438 114.377C160.721 112.462 162.516 110.03 163.672 107.283C165.254 102.732 165.814 97.8879 165.313 93.0956C165.223 89.6715 164.623 86.2798 163.531 83.0331C162.547 80.6864 161.084 78.5709 159.236 76.822C157.388 75.0732 155.194 73.7295 152.797 72.8769C150.73 72.1114 148.588 71.5667 146.406 71.2519C144.758 70.9835 143.092 70.8477 141.422 70.8456M138.469 106.689H137.078V83.5644H140.094C141.425 83.4684 142.76 83.6727 144.002 84.1622C145.243 84.6518 146.358 85.4139 147.266 86.3925C149.146 88.9084 150.15 91.9707 150.125 95.1113C150.125 98.955 150.125 102.439 146.656 104.893C144.158 106.269 141.313 106.903 138.469 106.689ZM195.828 70.6425C194.094 70.6425 192.406 70.7675 191.219 70.8144L187.5 70.9081H175.313V145.908H189.656C195.137 146.049 200.593 145.12 205.719 143.174C209.846 141.544 213.498 138.906 216.344 135.502C219.132 132.082 221.123 128.084 222.172 123.799C223.404 118.954 224.003 113.97 223.953 108.971C224.259 103.067 223.802 97.1482 222.594 91.3613C221.437 87.1064 219.296 83.1831 216.344 79.9081C214.028 77.2599 211.18 75.1301 207.984 73.6581C205.247 72.3894 202.367 71.4555 199.406 70.8769C198.229 70.6839 197.037 70.595 195.844 70.6113M193 132.127H191.438V84.2519H191.641C194.862 83.8794 198.122 84.4607 201.016 85.9238C203.135 87.6164 204.863 89.7488 206.078 92.1738C207.39 94.7259 208.146 97.527 208.297 100.393C208.438 103.83 208.297 106.643 208.297 108.971C208.355 111.652 208.182 114.334 207.781 116.986C207.29 119.706 206.4 122.338 205.141 124.799C203.718 127.093 201.775 129.02 199.469 130.424C197.542 131.674 195.258 132.256 192.969 132.08M272.344 70.9081H234.375V145.908H250.438V116.158H270.75V102.221H250.438V84.8456H272.313V70.9081" fill="#464648"/>
<path d="M340.327 316.486C340.327 316.486 390.139 307.455 390.139 324.47C390.139 341.486 359.28 334.564 340.327 316.486ZM303.499 317.783C295.583 319.527 287.87 322.088 280.483 325.424L286.733 311.361C292.983 297.299 299.467 278.127 299.467 278.127C306.907 290.691 315.585 302.479 325.374 313.314C318.005 314.412 310.702 315.914 303.499 317.814V317.783ZM283.78 216.22C283.78 201.392 288.577 197.345 292.311 197.345C296.045 197.345 300.249 199.142 300.389 212.017C299.171 224.963 296.46 237.725 292.311 250.049C286.608 239.709 283.665 228.075 283.764 216.267L283.78 216.22ZM211.139 380.533C195.858 371.392 243.186 343.252 251.764 342.345C251.717 342.361 227.139 390.095 211.139 380.533ZM404.686 326.486C404.53 324.924 403.124 307.627 372.342 308.361C359.512 308.136 346.686 309.041 334.014 311.064C321.731 298.701 311.158 284.749 302.577 269.58C307.98 253.944 311.254 237.652 312.311 221.142C311.858 202.392 307.374 191.642 292.999 191.799C278.624 191.955 276.53 204.533 278.42 223.252C280.271 235.831 283.764 248.113 288.811 259.783C288.811 259.783 282.17 280.455 273.389 301.017C264.608 321.58 258.608 332.361 258.608 332.361C243.336 337.326 228.96 344.712 216.03 354.236C203.155 366.22 197.92 375.424 204.702 384.627C210.545 392.564 230.999 394.361 249.28 370.408C258.977 358.024 267.85 345.017 275.842 331.47C275.842 331.47 303.717 323.83 312.389 321.736C321.061 319.642 331.545 317.986 331.545 317.986C331.545 317.986 356.999 343.595 381.545 342.689C406.092 341.783 404.905 328.017 404.749 326.517" fill="#DD2025"/>
<path d="M374.281 32.4453V124.211H462.297L374.281 32.4453Z" fill="#909090"/>
<path d="M375.484 31.25V123.016H463.5L375.484 31.25Z" fill="#F4F4F4"/>
<path d="M140.232 69.6347H119.811V144.635H135.936V119.353L139.498 119.557C142.946 119.509 146.362 118.891 149.607 117.728C152.461 116.76 155.083 115.212 157.311 113.182C159.577 111.261 161.355 108.83 162.498 106.088C164.08 101.536 164.64 96.6926 164.139 91.9003C164.05 88.4761 163.449 85.0845 162.357 81.8378C161.374 79.4911 159.911 77.3756 158.062 75.6267C156.214 73.8779 154.021 72.5341 151.623 71.6816C149.547 70.9086 147.394 70.3586 145.201 70.0409C143.553 69.7726 141.886 69.6367 140.217 69.6347M137.264 105.478H135.873V82.3534H138.904C140.235 82.2575 141.571 82.4618 142.812 82.9513C144.053 83.4408 145.169 84.203 146.076 85.1816C147.956 87.6974 148.96 90.7598 148.936 93.9003C148.936 97.7441 148.936 101.228 145.467 103.682C142.968 105.058 140.124 105.677 137.279 105.463M194.623 69.4316C192.889 69.4316 191.201 69.5566 190.014 69.6034L186.342 69.6972H174.154V144.697H188.498C193.979 144.838 199.435 143.909 204.561 141.963C208.687 140.333 212.34 137.696 215.186 134.291C217.974 130.871 219.965 126.873 221.014 122.588C222.246 117.743 222.845 112.759 222.795 107.76C223.101 101.856 222.644 95.9373 221.436 90.1503C220.279 85.8955 218.138 81.9722 215.186 78.6972C212.87 76.0489 210.021 73.9192 206.826 72.4472C204.089 71.1784 201.209 70.2446 198.248 69.666C197.071 69.473 195.879 69.3841 194.686 69.4003M191.842 130.916H190.279V83.041H190.482C193.704 82.6685 196.963 83.2498 199.857 84.7128C201.977 86.4054 203.704 88.5378 204.92 90.9628C206.232 93.5149 206.988 96.316 207.139 99.1816C207.279 102.619 207.139 105.432 207.139 107.76C207.196 110.441 207.024 113.123 206.623 115.775C206.131 118.495 205.242 121.128 203.982 123.588C202.56 125.882 200.617 127.809 198.311 129.213C196.384 130.463 194.1 131.045 191.811 130.869M271.139 69.6972H233.17V144.697H249.232V114.947H269.545V101.01H249.232V83.6347H271.107V69.6972" fill="white"/>
</svg>
